<svg width="337" height="88" viewBox="0 0 337 88" fill="none" xmlns="http://www.w3.org/2000/svg">
<path d="M36 35L42.2222 44L50 38L46.8889 53H25.1111L22 38L29.7778 44L36 35Z" stroke="url(#paint0_linear_103_86)" stroke-width="3" stroke-linecap="round" stroke-linejoin="round"/>
<path d="M79.5808 55.224C77.9381 55.224 76.4661 54.9573 75.1648 54.424C73.8634 53.8907 72.8181 53.1013 72.0288 52.056C71.2608 51.0107 70.8554 49.752 70.8128 48.28H76.6368C76.7221 49.112 77.0101 49.752 77.5008 50.2C77.9914 50.6267 78.6314 50.84 79.4208 50.84C80.2314 50.84 80.8714 50.6587 81.3408 50.296C81.8101 49.912 82.0448 49.3893 82.0448 48.728C82.0448 48.1733 81.8528 47.7147 81.4688 47.352C81.1061 46.9893 80.6474 46.6907 80.0928 46.456C79.5594 46.2213 78.7914 45.9547 77.7888 45.656C76.3381 45.208 75.1541 44.76 74.2368 44.312C73.3194 43.864 72.5301 43.2027 71.8688 42.328C71.2074 41.4533 70.8768 40.312 70.8768 38.904C70.8768 36.8133 71.6341 35.1813 73.1488 34.008C74.6634 32.8133 76.6368 32.216 79.0688 32.216C81.5434 32.216 83.5381 32.8133 85.0528 34.008C86.5674 35.1813 87.3781 36.824 87.4848 38.936H81.5648C81.5221 38.2107 81.2554 37.6453 80.7648 37.24C80.2741 36.8133 79.6448 36.6 78.8767 36.6C78.2154 36.6 77.6821 36.7813 77.2768 37.144C76.8714 37.4853 76.6688 37.9867 76.6688 38.648C76.6688 39.3733 77.0101 39.9387 77.6927 40.344C78.3754 40.7493 79.4421 41.1867 80.8928 41.656C82.3434 42.1467 83.5168 42.616 84.4128 43.064C85.3301 43.512 86.1194 44.1627 86.7808 45.016C87.4421 45.8693 87.7728 46.968 87.7728 48.312C87.7728 49.592 87.4421 50.7547 86.7808 51.8C86.1408 52.8453 85.2021 53.6773 83.9648 54.296C82.7274 54.9147 81.2661 55.224 79.5808 55.224ZM101.092 50.36V55H98.3083C96.3243 55 94.7776 54.52 93.6683 53.56C92.5589 52.5787 92.0043 50.9893 92.0043 48.792V41.688H89.8283V37.144H92.0043V32.792H97.4763V37.144H101.06V41.688H97.4763V48.856C97.4763 49.3893 97.6043 49.7733 97.8603 50.008C98.1163 50.2427 98.5429 50.36 99.1403 50.36H101.092ZM109.612 40.12C110.252 39.1387 111.052 38.3707 112.012 37.816C112.972 37.24 114.039 36.952 115.212 36.952V42.744H113.708C112.343 42.744 111.319 43.0427 110.636 43.64C109.954 44.216 109.612 45.24 109.612 46.712V55H104.14V37.144H109.612V40.12ZM134.66 45.784C134.66 46.296 134.628 46.8293 134.564 47.384H122.18C122.265 48.4933 122.617 49.3467 123.236 49.944C123.876 50.52 124.654 50.808 125.572 50.808C126.937 50.808 127.886 50.232 128.42 49.08H134.244C133.945 50.2533 133.401 51.3093 132.612 52.248C131.844 53.1867 130.873 53.9227 129.7 54.456C128.526 54.9893 127.214 55.256 125.764 55.256C124.014 55.256 122.457 54.8827 121.092 54.136C119.726 53.3893 118.66 52.3227 117.892 50.936C117.124 49.5493 116.74 47.928 116.74 46.072C116.74 44.216 117.113 42.5947 117.86 41.208C118.628 39.8213 119.694 38.7547 121.06 38.008C122.425 37.2613 123.993 36.888 125.764 36.888C127.492 36.888 129.028 37.2507 130.372 37.976C131.716 38.7013 132.761 39.736 133.508 41.08C134.276 42.424 134.66 43.992 134.66 45.784ZM129.06 44.344C129.06 43.4053 128.74 42.6587 128.1 42.104C127.46 41.5493 126.66 41.272 125.7 41.272C124.782 41.272 124.004 41.5387 123.364 42.072C122.745 42.6053 122.361 43.3627 122.212 44.344H129.06ZM136.459 46.04C136.459 44.2053 136.8 42.5947 137.483 41.208C138.187 39.8213 139.136 38.7547 140.331 38.008C141.525 37.2613 142.859 36.888 144.331 36.888C145.589 36.888 146.688 37.144 147.627 37.656C148.587 38.168 149.323 38.84 149.835 39.672V37.144H155.307V55H149.835V52.472C149.301 53.304 148.555 53.976 147.595 54.488C146.656 55 145.557 55.256 144.299 55.256C142.848 55.256 141.525 54.8827 140.331 54.136C139.136 53.368 138.187 52.2907 137.483 50.904C136.8 49.496 136.459 47.8747 136.459 46.04ZM149.835 46.072C149.835 44.7067 149.451 43.6293 148.683 42.84C147.936 42.0507 147.019 41.656 145.931 41.656C144.843 41.656 143.915 42.0507 143.147 42.84C142.4 43.608 142.027 44.6747 142.027 46.04C142.027 47.4053 142.4 48.4933 143.147 49.304C143.915 50.0933 144.843 50.488 145.931 50.488C147.019 50.488 147.936 50.0933 148.683 49.304C149.451 48.5147 149.835 47.4373 149.835 46.072ZM182.049 36.952C184.268 36.952 186.028 37.624 187.329 38.968C188.652 40.312 189.313 42.1787 189.313 44.568V55H183.873V45.304C183.873 44.152 183.564 43.2667 182.945 42.648C182.348 42.008 181.516 41.688 180.449 41.688C179.383 41.688 178.54 42.008 177.921 42.648C177.324 43.2667 177.025 44.152 177.025 45.304V55H171.585V45.304C171.585 44.152 171.276 43.2667 170.657 42.648C170.06 42.008 169.228 41.688 168.161 41.688C167.095 41.688 166.252 42.008 165.633 42.648C165.036 43.2667 164.737 44.152 164.737 45.304V55H159.265V37.144H164.737V39.384C165.292 38.6373 166.017 38.0507 166.913 37.624C167.809 37.176 168.823 36.952 169.953 36.952C171.297 36.952 172.492 37.24 173.537 37.816C174.604 38.392 175.436 39.2133 176.033 40.28C176.652 39.2987 177.495 38.4987 178.561 37.88C179.628 37.2613 180.791 36.952 182.049 36.952ZM204.596 55L199.924 46.52H198.612V55H193.14V32.536H202.324C204.095 32.536 205.599 32.8453 206.836 33.464C208.095 34.0827 209.034 34.936 209.652 36.024C210.271 37.0907 210.58 38.2853 210.58 39.608C210.58 41.1013 210.154 42.4347 209.3 43.608C208.468 44.7813 207.231 45.6133 205.588 46.104L210.772 55H204.596ZM198.612 42.648H202.004C203.007 42.648 203.754 42.4027 204.244 41.912C204.756 41.4213 205.012 40.728 205.012 39.832C205.012 38.9787 204.756 38.3067 204.244 37.816C203.754 37.3253 203.007 37.08 202.004 37.08H198.612V42.648ZM212.927 46.04C212.927 44.2053 213.269 42.5947 213.951 41.208C214.655 39.8213 215.605 38.7547 216.799 38.008C217.994 37.2613 219.327 36.888 220.799 36.888C222.058 36.888 223.157 37.144 224.095 37.656C225.055 38.168 225.791 38.84 226.303 39.672V37.144H231.775V55H226.303V52.472C225.77 53.304 225.023 53.976 224.063 54.488C223.125 55 222.026 55.256 220.767 55.256C219.317 55.256 217.994 54.8827 216.799 54.136C215.605 53.368 214.655 52.2907 213.951 50.904C213.269 49.496 212.927 47.8747 212.927 46.04ZM226.303 46.072C226.303 44.7067 225.919 43.6293 225.151 42.84C224.405 42.0507 223.487 41.656 222.399 41.656C221.311 41.656 220.383 42.0507 219.615 42.84C218.869 43.608 218.495 44.6747 218.495 46.04C218.495 47.4053 218.869 48.4933 219.615 49.304C220.383 50.0933 221.311 50.488 222.399 50.488C223.487 50.488 224.405 50.0933 225.151 49.304C225.919 48.5147 226.303 47.4373 226.303 46.072ZM246.614 36.952C248.705 36.952 250.369 37.6347 251.606 39C252.865 40.344 253.494 42.2 253.494 44.568V55H248.054V45.304C248.054 44.1093 247.745 43.1813 247.126 42.52C246.507 41.8587 245.675 41.528 244.63 41.528C243.585 41.528 242.753 41.8587 242.134 42.52C241.515 43.1813 241.206 44.1093 241.206 45.304V55H235.734V37.144H241.206V39.512C241.761 38.7227 242.507 38.104 243.446 37.656C244.385 37.1867 245.441 36.952 246.614 36.952ZM268.209 55L262.769 47.512V55H257.297V31.32H262.769V44.408L268.177 37.144H274.929L267.505 46.104L274.993 55H268.209ZM293.91 45.784C293.91 46.296 293.878 46.8293 293.814 47.384H281.43C281.515 48.4933 281.867 49.3467 282.486 49.944C283.126 50.52 283.904 50.808 284.822 50.808C286.187 50.808 287.136 50.232 287.67 49.08H293.494C293.195 50.2533 292.651 51.3093 291.862 52.248C291.094 53.1867 290.123 53.9227 288.95 54.456C287.776 54.9893 286.464 55.256 285.014 55.256C283.264 55.256 281.707 54.8827 280.342 54.136C278.976 53.3893 277.91 52.3227 277.142 50.936C276.374 49.5493 275.99 47.928 275.99 46.072C275.99 44.216 276.363 42.5947 277.11 41.208C277.878 39.8213 278.944 38.7547 280.31 38.008C281.675 37.2613 283.243 36.888 285.014 36.888C286.742 36.888 288.278 37.2507 289.622 37.976C290.966 38.7013 292.011 39.736 292.758 41.08C293.526 42.424 293.91 43.992 293.91 45.784ZM288.31 44.344C288.31 43.4053 287.99 42.6587 287.35 42.104C286.71 41.5493 285.91 41.272 284.95 41.272C284.032 41.272 283.254 41.5387 282.614 42.072C281.995 42.6053 281.611 43.3627 281.462 44.344H288.31ZM295.709 46.04C295.709 44.2053 296.05 42.5947 296.733 41.208C297.437 39.8213 298.386 38.7547 299.581 38.008C300.775 37.2613 302.109 36.888 303.581 36.888C304.754 36.888 305.821 37.1333 306.781 37.624C307.762 38.1147 308.53 38.776 309.085 39.608V31.32H314.557V55H309.085V52.44C308.573 53.2933 307.837 53.976 306.877 54.488C305.938 55 304.839 55.256 303.581 55.256C302.109 55.256 300.775 54.8827 299.581 54.136C298.386 53.368 297.437 52.2907 296.733 50.904C296.05 49.496 295.709 47.8747 295.709 46.04ZM309.085 46.072C309.085 44.7067 308.701 43.6293 307.933 42.84C307.186 42.0507 306.269 41.656 305.181 41.656C304.093 41.656 303.165 42.0507 302.397 42.84C301.65 43.608 301.277 44.6747 301.277 46.04C301.277 47.4053 301.65 48.4933 302.397 49.304C303.165 50.0933 304.093 50.488 305.181 50.488C306.269 50.488 307.186 50.0933 307.933 49.304C308.701 48.5147 309.085 47.4373 309.085 46.072Z" fill="white"/>
<defs>
<linearGradient id="paint0_linear_103_86" x1="20.25" y1="35" x2="37.9426" y2="61.4426" gradientUnits="userSpaceOnUse">
<stop stop-color="#000AFF"/>
<stop offset="1" stop-color="#A81AFF"/>
</linearGradient>
</defs>
</svg>
