<svg width="102" height="74" viewBox="0 0 102 74" fill="none" xmlns="http://www.w3.org/2000/svg">
<g clip-path="url(#clip0_1_94)">
<g clip-path="url(#clip1_1_94)">
<rect x="0.893799" y="0.5" width="100.3" height="73.2526" rx="9.11816" fill="white"/>
<path d="M52.1165 55.2088H49.9711L50.5074 47.3229C50.4771 46.9076 50.2602 46.7984 49.4347 46.83L40.8529 47.8157C40.8529 47.8157 42.462 45.8442 42.462 44.8585C42.462 43.8727 32.8075 37.4654 32.8075 37.4654C32.8075 37.4654 34.9529 36.9725 35.4893 36.4796C36.0257 35.9868 33.3439 30.5652 33.3439 30.5652C33.3439 30.5652 38.7945 32.5367 39.2438 32.0438C39.6932 31.5509 40.3166 29.5794 40.3166 29.5794C40.3166 29.5794 44.6075 34.0153 45.6802 34.0153C46.7529 34.0153 43.5347 23.1721 43.5347 23.1721C43.5347 23.1721 46.2165 25.1436 47.2893 25.1436C48.362 25.1436 51.0438 18.7362 51.0438 18.7362C51.0438 18.7362 53.7256 25.1436 54.262 25.1436C54.7983 25.1436 58.5529 23.1721 58.5529 23.1721C58.5529 23.1721 55.8711 33.5224 56.4074 34.0153C56.9438 34.5082 61.771 29.5794 61.771 29.5794C61.771 29.5794 62.3074 31.5509 62.8438 32.0438C63.3801 32.5367 68.7438 30.5652 68.7438 30.5652C68.7438 30.5652 66.0619 35.9868 66.5983 36.4796C67.1347 36.9725 69.2801 37.4654 69.2801 37.4654C69.2801 37.4654 59.6256 43.8727 59.6256 44.8585C59.6256 45.8442 60.6983 47.8157 60.6983 47.8157L52.6529 46.83C52.0062 46.6596 51.782 46.7889 51.5802 47.3229L52.1165 55.2088Z" fill="#F93939"/>
<rect x="78.3981" y="0.5" width="22.7954" height="72.9452" fill="#F93939"/>
<rect x="0.893799" y="0.5" width="22.7954" height="72.9452" fill="#F93939"/>
</g>
</g>
<defs>
<clipPath id="clip0_1_94">
<rect width="100.3" height="73.2526" fill="white" transform="translate(0.893799 0.5)"/>
</clipPath>
<clipPath id="clip1_1_94">
<rect x="0.893799" y="0.5" width="100.3" height="73.2526" rx="9.11816" fill="white"/>
</clipPath>
</defs>
</svg>
